<?xml version="1.0" standalone="no"?><!-- Generator: Gravit.io --><svg xmlns="http://www.w3.org/2000/svg" xmlns:xlink="http://www.w3.org/1999/xlink" style="isolation:isolate" viewBox="497.57 88.57 547.64 758.43" width="547.64" height="758.43"><path d="M 627.66 333 L 934.34 333 C 952.917 333 968 348.083 968 366.66 L 968 813.34 C 968 831.917 952.917 847 934.34 847 L 627.66 847 C 609.083 847 594 831.917 594 813.34 L 594 366.66 C 594 348.083 609.083 333 627.66 333 Z" style="stroke:none;fill:#B08F8F;stroke-miterlimit:10;"/><g id="null"><path d="M 625.985 394 L 756.658 394 C 764.574 394 771 400.426 771 408.342 L 771 600.658 C 771 608.574 764.574 615 756.658 615 L 625.985 615 C 618.07 615 611.643 608.574 611.643 600.658 L 611.643 408.342 C 611.643 400.426 618.07 394 625.985 394 Z" style="stroke:none;fill:#4F4C4C;stroke-miterlimit:10;"/><path d="M 628.152 403.421 L 680.465 403.421 C 683.634 403.421 686.207 405.994 686.207 409.163 L 686.207 495.932 C 686.207 499.101 683.634 501.674 680.465 501.674 L 628.152 501.674 C 624.983 501.674 622.41 499.101 622.41 495.932 L 622.41 409.163 C 622.41 405.994 624.983 403.421 628.152 403.421 Z" style="stroke:none;fill:#E1E1E1;stroke-miterlimit:10;"/><path d="M 701.909 506.788 L 754.222 506.788 C 757.391 506.788 759.963 509.361 759.963 512.53 L 759.963 599.299 C 759.963 602.467 757.391 605.04 754.222 605.04 L 701.909 605.04 C 698.74 605.04 696.167 602.467 696.167 599.299 L 696.167 512.53 C 696.167 509.361 698.74 506.788 701.909 506.788 Z" style="stroke:none;fill:#E1E1E1;stroke-miterlimit:10;"/><path d="M 628.152 506.788 L 680.465 506.788 C 683.634 506.788 686.207 509.361 686.207 512.53 L 686.207 599.299 C 686.207 602.467 683.634 605.04 680.465 605.04 L 628.152 605.04 C 624.983 605.04 622.41 602.467 622.41 599.299 L 622.41 512.53 C 622.41 509.361 624.983 506.788 628.152 506.788 Z" style="stroke:none;fill:#E1E1E1;stroke-miterlimit:10;"/><path d="M 701.909 403.421 L 754.222 403.421 C 757.391 403.421 759.963 405.994 759.963 409.163 L 759.963 495.932 C 759.963 499.101 757.391 501.674 754.222 501.674 L 701.909 501.674 C 698.74 501.674 696.167 499.101 696.167 495.932 L 696.167 409.163 C 696.167 405.994 698.74 403.421 701.909 403.421 Z" style="stroke:none;fill:#E1E1E1;stroke-miterlimit:10;"/></g><g id="null"><path d="M 830.273 394 L 874.162 394 C 876.52 394 878.435 395.915 878.435 398.273 L 878.435 420.249 C 878.435 422.607 876.52 424.522 874.162 424.522 L 830.273 424.522 C 827.915 424.522 826 422.607 826 420.249 L 826 398.273 C 826 395.915 827.915 394 830.273 394 Z" style="stroke:none;fill:#D2ADAD;stroke-miterlimit:10;"/><path d="M 861.577 426.87 L 905.466 426.87 C 907.824 426.87 909.739 428.784 909.739 431.143 L 909.739 453.118 C 909.739 455.477 907.824 457.391 905.466 457.391 L 861.577 457.391 C 859.219 457.391 857.304 455.477 857.304 453.118 L 857.304 431.143 C 857.304 428.784 859.219 426.87 861.577 426.87 Z" style="stroke:none;fill:#D2ADAD;stroke-miterlimit:10;"/><path d="M 885.838 394 L 929.727 394 C 932.085 394 934 395.915 934 398.273 L 934 420.249 C 934 422.607 932.085 424.522 929.727 424.522 L 885.838 424.522 C 883.48 424.522 881.565 422.607 881.565 420.249 L 881.565 398.273 C 881.565 395.915 883.48 394 885.838 394 Z" style="stroke:none;fill:#D2ADAD;stroke-miterlimit:10;"/></g><g id="null"><path d="M 709.377 677 L 753.266 677 C 755.624 677 757.539 678.915 757.539 681.273 L 757.539 703.249 C 757.539 705.607 755.624 707.522 753.266 707.522 L 709.377 707.522 C 707.019 707.522 705.104 705.607 705.104 703.249 L 705.104 681.273 C 705.104 678.915 707.019 677 709.377 677 Z" style="stroke:none;fill:#D2ADAD;stroke-miterlimit:10;"/><path d="M 651.377 677 L 695.266 677 C 697.624 677 699.539 678.915 699.539 681.273 L 699.539 703.249 C 699.539 705.607 697.624 707.522 695.266 707.522 L 651.377 707.522 C 649.019 707.522 647.104 705.607 647.104 703.249 L 647.104 681.273 C 647.104 678.915 649.019 677 651.377 677 Z" style="stroke:none;fill:#D2ADAD;stroke-miterlimit:10;"/><path d="M 685.377 643 L 729.266 643 C 731.624 643 733.539 644.915 733.539 647.273 L 733.539 669.249 C 733.539 671.607 731.624 673.522 729.266 673.522 L 685.377 673.522 C 683.019 673.522 681.104 671.607 681.104 669.249 L 681.104 647.273 C 681.104 644.915 683.019 643 685.377 643 Z" style="stroke:none;fill:#D2ADAD;stroke-miterlimit:10;"/><path d="M 629.377 643 L 673.266 643 C 675.624 643 677.539 644.915 677.539 647.273 L 677.539 669.249 C 677.539 671.607 675.624 673.522 673.266 673.522 L 629.377 673.522 C 627.019 673.522 625.104 671.607 625.104 669.249 L 625.104 647.273 C 625.104 644.915 627.019 643 629.377 643 Z" style="stroke:none;fill:#D2ADAD;stroke-miterlimit:10;"/></g><path d="M 632.9 110.57 L 664.834 110.57 C 669.791 110.57 673.815 114.594 673.815 119.551 L 673.815 289.589 C 673.815 294.546 669.791 298.57 664.834 298.57 L 632.9 298.57 C 627.944 298.57 623.919 294.546 623.919 289.589 L 623.919 119.551 C 623.919 114.594 627.944 110.57 632.9 110.57 Z" style="stroke:none;fill:#B96363;stroke-miterlimit:10;"/><clipPath id="_clipPath_zpsszb2LSwug4BZoAmEO0pQSXKh31LGn"><path d="M 632.9 110.57 L 664.834 110.57 C 669.791 110.57 673.815 114.594 673.815 119.551 L 673.815 289.589 C 673.815 294.546 669.791 298.57 664.834 298.57 L 632.9 298.57 C 627.944 298.57 623.919 294.546 623.919 289.589 L 623.919 119.551 C 623.919 114.594 627.944 110.57 632.9 110.57 Z" style="stroke:black;fill:white;stroke-miterlimit:10;"/></clipPath><g clip-path="url(#_clipPath_zpsszb2LSwug4BZoAmEO0pQSXKh31LGn)"><path d="M 602.273 199 L 646.162 199 C 648.52 199 650.435 200.915 650.435 203.273 L 650.435 225.249 C 650.435 227.607 648.52 229.522 646.162 229.522 L 602.273 229.522 C 599.915 229.522 598 227.607 598 225.249 L 598 203.273 C 598 200.915 599.915 199 602.273 199 Z" style="stroke:none;fill:#AA5454;stroke-miterlimit:10;"/><path d="M 654.708 145.57 L 698.597 145.57 C 700.955 145.57 702.87 147.485 702.87 149.843 L 702.87 171.819 C 702.87 174.177 700.955 176.092 698.597 176.092 L 654.708 176.092 C 652.349 176.092 650.435 174.177 650.435 171.819 L 650.435 149.843 C 650.435 147.485 652.349 145.57 654.708 145.57 Z" style="stroke:none;fill:#AA5454;stroke-miterlimit:10;"/></g><path d="M 619.563 88.57 L 678.171 88.57 C 682.542 88.57 686.091 92.119 686.091 96.49 L 686.091 124.65 C 686.091 129.021 682.542 132.57 678.171 132.57 L 619.563 132.57 C 615.192 132.57 611.643 129.021 611.643 124.65 L 611.643 96.49 C 611.643 92.119 615.192 88.57 619.563 88.57 Z" style="stroke:none;fill:#AA5454;stroke-miterlimit:10;"/><path d="M 791.305 541 L 925.695 541 C 930.279 541 934 544.721 934 549.305 L 934 838.695 C 934 843.279 930.279 847 925.695 847 L 791.305 847 C 786.721 847 783 843.279 783 838.695 L 783 549.305 C 783 544.721 786.721 541 791.305 541 Z" style="stroke:none;fill:#CE8989;stroke-miterlimit:10;"/><path d="M 809.55 551.348 L 907.45 551.348 C 910.789 551.348 913.5 554.059 913.5 557.398 L 913.5 689.298 C 913.5 692.637 910.789 695.348 907.45 695.348 L 809.55 695.348 C 806.211 695.348 803.5 692.637 803.5 689.298 L 803.5 557.398 C 803.5 554.059 806.211 551.348 809.55 551.348 Z" style="fill:none;stroke:#BF7F7F;stroke-width:8;stroke-linecap:square;stroke-miterlimit:3;"/><path d="M 809.55 717 L 907.45 717 C 910.789 717 913.5 719.711 913.5 723.05 L 913.5 826.95 C 913.5 830.289 910.789 833 907.45 833 L 809.55 833 C 806.211 833 803.5 830.289 803.5 826.95 L 803.5 723.05 C 803.5 719.711 806.211 717 809.55 717 Z" style="fill:none;stroke:#BF7F7F;stroke-width:8;stroke-linecap:square;stroke-miterlimit:3;"/><path d="M 789.44 691 L 796.56 691 C 796.803 691 797 691.197 797 691.44 L 797 716.56 C 797 716.803 796.803 717 796.56 717 L 789.44 717 C 789.197 717 789 716.803 789 716.56 L 789 691.44 C 789 691.197 789.197 691 789.44 691 Z" style="stroke:none;fill:#C6C0C0;stroke-linecap:square;stroke-miterlimit:3;"/><path d=" M 796 700 L 813 700 L 813 708 L 796 708 C 794.344 708 793 706.656 793 705 L 793 703 C 793 701.344 794.344 700 796 700 Z " fill="rgb(230,220,220)"/><path d=" M 598 354 L 768 168 L 961 354 L 598 354 Z " fill="rgb(176,143,143)"/><g id="null"><path d="M 748.838 343 L 792.727 343 C 795.085 343 797 344.915 797 347.273 L 797 369.249 C 797 371.607 795.085 373.522 792.727 373.522 L 748.838 373.522 C 746.48 373.522 744.565 371.607 744.565 369.249 L 744.565 347.273 C 744.565 344.915 746.48 343 748.838 343 Z" style="stroke:none;fill:#D2ADAD;stroke-linecap:square;stroke-miterlimit:3;"/><path d="M 690.838 343 L 734.727 343 C 737.085 343 739 344.915 739 347.273 L 739 369.249 C 739 371.607 737.085 373.522 734.727 373.522 L 690.838 373.522 C 688.48 373.522 686.565 371.607 686.565 369.249 L 686.565 347.273 C 686.565 344.915 688.48 343 690.838 343 Z" style="stroke:none;fill:#D2ADAD;stroke-linecap:square;stroke-miterlimit:3;"/><path d="M 724.838 309 L 768.727 309 C 771.085 309 773 310.915 773 313.273 L 773 335.249 C 773 337.607 771.085 339.522 768.727 339.522 L 724.838 339.522 C 722.48 339.522 720.565 337.607 720.565 335.249 L 720.565 313.273 C 720.565 310.915 722.48 309 724.838 309 Z" style="stroke:none;fill:#D2ADAD;stroke-linecap:square;stroke-miterlimit:3;"/><path d="M 668.838 309 L 712.727 309 C 715.085 309 717 310.915 717 313.273 L 717 335.249 C 717 337.607 715.085 339.522 712.727 339.522 L 668.838 339.522 C 666.48 339.522 664.565 337.607 664.565 335.249 L 664.565 313.273 C 664.565 310.915 666.48 309 668.838 309 Z" style="stroke:none;fill:#D2ADAD;stroke-linecap:square;stroke-miterlimit:3;"/></g><g id="null"><path d="M 503.623 391.839 L 756.839 138.623 C 764.909 130.552 778.014 130.552 786.085 138.623 L 790.073 142.611 C 798.143 150.682 798.143 163.786 790.073 171.857 L 536.857 425.073 C 528.786 433.143 515.682 433.143 507.611 425.073 L 503.623 421.085 C 495.552 413.014 495.552 399.909 503.623 391.839 Z" style="stroke:none;fill:#8E7676;stroke-linecap:square;stroke-miterlimit:3;"/><path d="M 786.135 138.673 L 1039.136 391.675 C 1047.235 399.773 1047.235 412.923 1039.136 421.021 L 1035.135 425.023 C 1027.036 433.121 1013.887 433.121 1005.789 425.023 L 752.787 172.021 C 744.689 163.923 744.689 150.773 752.787 142.675 L 756.789 138.673 C 764.887 130.575 778.036 130.575 786.135 138.673 Z" style="stroke:none;fill:#8E7676;stroke-linecap:square;stroke-miterlimit:3;"/></g><path d=" M 723.906 292 C 723.893 291.669 723.89 291.335 723.89 291 C 723.89 263.404 745.174 241 771.39 241 C 797.606 241 818.89 263.404 818.89 291 C 818.89 291.335 818.887 291.669 818.874 292 L 723.906 292 Z " fill="rgb(235,235,235)" vector-effect="non-scaling-stroke" stroke-width="5" stroke="rgb(79,76,76)" stroke-linejoin="miter" stroke-linecap="square" stroke-miterlimit="3"/><clipPath id="_clipPath_GN5wOVJrxIaXswsXusJfPIw6b7nReLt6"><path d=" M 723.906 292 C 723.893 291.669 723.89 291.335 723.89 291 C 723.89 263.404 745.174 241 771.39 241 C 797.606 241 818.89 263.404 818.89 291 C 818.89 291.335 818.887 291.669 818.874 292 L 723.906 292 Z " fill="rgb(235,235,235)" vector-effect="non-scaling-stroke" stroke-width="5" stroke="rgb(79,76,76)" stroke-linejoin="miter" stroke-linecap="square" stroke-miterlimit="3"/></clipPath><g clip-path="url(#_clipPath_GN5wOVJrxIaXswsXusJfPIw6b7nReLt6)"><rect x="768" y="235" width="7.11" height="113" transform="matrix(1,0,0,1,0,0)" fill="rgb(79,76,76)"/><rect x="716" y="287" width="110" height="8" transform="matrix(1,0,0,1,0,0)" fill="rgb(79,76,76)"/></g></svg>